<svg width="32" height="32" viewBox="0 0 32 32" fill="none" xmlns="http://www.w3.org/2000/svg">
<g id="Icon">
<g id="Vector">
<path fill-rule="evenodd" clip-rule="evenodd" d="M16 6.00006C10.4772 6.00006 6 10.4772 6 16.0001C6 21.5229 10.4772 26.0001 16 26.0001C21.5228 26.0001 26 21.5229 26 16.0001C26 14.5092 25.6744 13.0971 25.0914 11.8287C24.8607 11.3269 25.0805 10.7331 25.5824 10.5025C26.0842 10.2718 26.678 10.4916 26.9086 10.9934C27.6096 12.5185 28 14.2151 28 16.0001C28 22.6275 22.6274 28.0001 16 28.0001C9.37258 28.0001 4 22.6275 4 16.0001C4 9.37264 9.37258 4.00006 16 4.00006V6.00006Z" fill="currentColor"/>
<path d="M16 8.93254V1.06758C16 0.643663 16.4944 0.412084 16.8201 0.68347L21.5391 4.61595C21.7789 4.81585 21.7789 5.18427 21.5391 5.38417L16.8201 9.31665C16.4944 9.58804 16 9.35646 16 8.93254Z" fill="currentColor"/>
</g>
</g>
</svg>
