<?xml version="1.0" encoding="UTF-8" standalone="no"?>
<svg
        fill="none"
        height="24"
        viewBox="0 0 24 24"
        width="24"
        version="1.1"
        id="svg1"
        sodipodi:docname="gauge-min.svg"
        inkscape:version="1.4 (e7c3feb1, 2024-10-09)"
        xmlns:inkscape="http://www.inkscape.org/namespaces/inkscape"
        xmlns:sodipodi="http://sodipodi.sourceforge.net/DTD/sodipodi-0.dtd"
        xmlns="http://www.w3.org/2000/svg"
        xmlns:svg="http://www.w3.org/2000/svg">
  <defs
          id="defs1"/>
  <sodipodi:namedview
          id="namedview1"
          pagecolor="#ffffff"
          bordercolor="#000000"
          borderopacity="0.25"
          inkscape:showpageshadow="2"
          inkscape:pageopacity="0.0"
          inkscape:pagecheckerboard="0"
          inkscape:deskcolor="#d1d1d1"
          showgrid="false"
          inkscape:zoom="35.416667"
          inkscape:cx="12"
          inkscape:cy="12"
          inkscape:window-width="1920"
          inkscape:window-height="1027"
          inkscape:window-x="0"
          inkscape:window-y="25"
          inkscape:window-maximized="1"
          inkscape:current-layer="svg1"/>
  <path
          d="M 10,14 6,12 M 8,8 H 7.99 M 12,6 H 11.99 M 16,8 H 15.99 M 18,12 H 17.99 M 10,15 c 0,1.1046 0.8954,2 2,2 1.1046,0 2,-0.8954 2,-2 0,-1.1046 -0.8954,-2 -2,-2 -1.1046,0 -2,0.8954 -2,2 z M 3,12 c 0,4.9706 4.0294,9 9,9 4.97056,0 9,-4.0294 9,-9 C 21,7.02944 16.97056,3 12,3 7.0294,3 3,7.02944 3,12 Z"
          stroke="#000000"
          stroke-linecap="round"
          stroke-linejoin="round"
          stroke-width="2"
          id="path1"/>
</svg>
