<svg enable-background="new 0 0 76.00 76.00" height="76" viewBox="0 0 76 76" width="76" xmlns="http://www.w3.org/2000/svg"><path d="m40.8505 47.8818c-1.5621 1.5621-4.0947 1.5621-5.6568 0s-1.5621-4.0948 0-5.6569c.5327-.5327 1.1784-.8838 1.8599-1.0531l6.6254-1.7753-1.7753 6.6255c-.1694.6815-.5205 1.3271-1.0532 1.8598zm-2.8505-24.8818c11.0457 0 20 8.9543 20 20v3h-10v-3c0-5.5228-4.4772-10-10-10-5.5229 0-10 4.4772-10 10v3h-10v-3c0-11.0457 8.9543-20 20-20zm17 20c0-4.3289-1.6181-8.2799-4.2823-11.2812l-2.835 2.835c1.9435 2.272 3.1173 5.222 3.1173 8.4462zm-28.2841-12.7151 2.8349 2.8349c2.0297-1.7373 4.6011-2.8601 7.4258-3.0801v-4.0094c-3.9281.2333-7.4972 1.8003-10.2607 4.2546zm19.7543 2.853 2.8346-2.8346c-2.7773-2.4746-6.3718-4.0516-10.3282-4.2757v4.0086c2.8529.2119 5.4495 1.3445 7.4936 3.1017zm-25.4702 9.8621h4c0-3.2342 1.181-6.1925 3.1353-8.4672l-2.8346-2.8347c-2.6752 3.0038-4.3007 6.9631-4.3007 11.3019z" stroke-linejoin="round" stroke-width=".2"/></svg>