<svg xmlns="http://www.w3.org/2000/svg" width="39" height="39" viewBox="0 0 39 39" fill="none"><path fill="currentColor" d="M29.25 22.75a6.5 6.5 0 0 0-5.005 2.405l-8.287-3.819c.39-1.193.39-2.48 0-3.672l8.287-3.819a6.5 6.5 0 1 0-1.38-2.941l-8.58 3.948a6.501 6.501 0 1 0 0 9.296l8.58 3.948q-.108.572-.115 1.154a6.5 6.5 0 1 0 6.5-6.5m0-16.25a3.25 3.25 0 1 1 0 6.5 3.25 3.25 0 0 1 0-6.5M9.75 22.75a3.25 3.25 0 1 1 0-6.5 3.25 3.25 0 0 1 0 6.5m19.5 9.75a3.25 3.25 0 1 1 0-6.5 3.25 3.25 0 0 1 0 6.5"/></svg>