<svg xmlns="http://www.w3.org/2000/svg" width="39" height="39" viewBox="0 0 39 39" fill="none">
    <path d="M29.2503 22.75C28.2902 22.7564 27.3435 22.9753 26.4781 23.3911C25.6127 23.807 24.8502 24.4094 24.2453 25.155L15.9578 21.3363C16.3475 20.1431 16.3475 18.8569 15.9578 17.6638L24.2453 13.845C25.2229 15.0247 26.5859 15.8211 28.0936 16.0937C29.6012 16.3664 31.1568 16.0976 32.4856 15.335C33.8144 14.5723 34.8312 13.3648 35.3563 11.9255C35.8815 10.4861 35.8813 8.90757 35.3559 7.46835C34.8305 6.02913 33.8135 4.82177 32.4846 4.05936C31.1556 3.29695 29.6 3.0285 28.0924 3.30139C26.5847 3.57428 25.222 4.37096 24.2445 5.55083C23.2671 6.7307 22.7379 8.21792 22.7503 9.75C22.7552 10.1371 22.7932 10.5231 22.8641 10.9038L14.2841 14.8525C13.3693 13.9581 12.211 13.3535 10.9541 13.1144C9.69728 12.8754 8.39785 13.0126 7.21864 13.5088C6.03942 14.0051 5.03287 14.8382 4.32508 15.904C3.61729 16.9697 3.23975 18.2206 3.23975 19.5C3.23975 20.7794 3.61729 22.0303 4.32508 23.096C5.03287 24.1618 6.03942 24.9949 7.21864 25.4912C8.39785 25.9874 9.69728 26.1246 10.9541 25.8856C12.211 25.6465 13.3693 25.0419 14.2841 24.1475L22.8641 28.0963C22.7932 28.4769 22.7552 28.8629 22.7503 29.25C22.7503 30.5356 23.1315 31.7923 23.8458 32.8612C24.56 33.9301 25.5751 34.7633 26.7629 35.2552C27.9506 35.7472 29.2575 35.8759 30.5184 35.6251C31.7793 35.3743 32.9375 34.7552 33.8465 33.8462C34.7555 32.9372 35.3746 31.779 35.6254 30.5181C35.8762 29.2572 35.7475 27.9503 35.2555 26.7626C34.7636 25.5748 33.9304 24.5597 32.8615 23.8455C31.7926 23.1312 30.5359 22.75 29.2503 22.75ZM29.2503 6.5C29.8931 6.5 30.5215 6.69061 31.0559 7.04773C31.5904 7.40484 32.0069 7.91242 32.2529 8.50628C32.4989 9.10014 32.5633 9.75361 32.4379 10.384C32.3125 11.0145 32.0029 11.5936 31.5484 12.0481C31.0939 12.5026 30.5148 12.8122 29.8843 12.9376C29.2539 13.063 28.6004 12.9986 28.0066 12.7526C27.4127 12.5066 26.9051 12.0901 26.548 11.5556C26.1909 11.0211 26.0003 10.3928 26.0003 9.75C26.0003 8.88805 26.3427 8.0614 26.9522 7.45191C27.5617 6.84241 28.3884 6.5 29.2503 6.5ZM9.75031 22.75C9.10752 22.75 8.47916 22.5594 7.9447 22.2023C7.41024 21.8452 6.99368 21.3376 6.7477 20.7437C6.50171 20.1499 6.43735 19.4964 6.56275 18.866C6.68815 18.2355 6.99769 17.6564 7.45221 17.2019C7.90673 16.7474 8.48582 16.4379 9.11626 16.3125C9.7467 16.187 10.4002 16.2514 10.994 16.4974C11.5879 16.7434 12.0955 17.1599 12.4526 17.6944C12.8097 18.2289 13.0003 18.8572 13.0003 19.5C13.0003 20.362 12.6579 21.1886 12.0484 21.7981C11.4389 22.4076 10.6123 22.75 9.75031 22.75ZM29.2503 32.5C28.6075 32.5 27.9792 32.3094 27.4447 31.9523C26.9102 31.5952 26.4937 31.0876 26.2477 30.4937C26.0017 29.8999 25.9374 29.2464 26.0628 28.616C26.1882 27.9855 26.4977 27.4064 26.9522 26.9519C27.4067 26.4974 27.9858 26.1879 28.6163 26.0625C29.2467 25.937 29.9002 26.0014 30.494 26.2474C31.0879 26.4934 31.5955 26.9099 31.9526 27.4444C32.3097 27.9789 32.5003 28.6072 32.5003 29.25C32.5003 30.112 32.1579 30.9386 31.5484 31.5481C30.9389 32.1576 30.1123 32.5 29.2503 32.5Z" fill="currentColor"/>
</svg>