<svg width="32" height="33" viewBox="0 0 32 33" fill="none" xmlns="http://www.w3.org/2000/svg">
<g id="Icon">
<g id="Vector">
<path d="M0 8.5C0 6.29086 1.79086 4.5 4 4.5H28C30.2091 4.5 32 6.29086 32 8.5V24.5C32 26.7091 30.2091 28.5 28 28.5H4C1.79086 28.5 0 26.7091 0 24.5V8.5ZM4 6.5C2.89543 6.5 2 7.39543 2 8.5V10.5H30V8.5C30 7.39543 29.1046 6.5 28 6.5H4ZM30 14.5H2V24.5C2 25.6046 2.89543 26.5 4 26.5H28C29.1046 26.5 30 25.6046 30 24.5V14.5Z" fill="currentColor"/>
<path d="M4 20.5C4 19.3954 4.89543 18.5 6 18.5H8C9.10457 18.5 10 19.3954 10 20.5V22.5C10 23.6046 9.10457 24.5 8 24.5H6C4.89543 24.5 4 23.6046 4 22.5V20.5Z" fill="currentColor"/>
</g>
</g>
</svg>
