<svg fill="none" height="24" viewBox="0 0 24 24" width="24" xmlns="http://www.w3.org/2000/svg">
  <g fill="currentColor">
    <path d="m19.75 2c-.4142 0-.75.33579-.75.75s.3358.75.75.75h1.6893l-2.9696 2.96967c-.2929.29289-.2929.76777 0 1.06066s.7677.29289 1.0606 0l2.9697-2.96967v1.68934c0 .41421.3358.75.75.75s.75-.33579.75-.75v-3.5c0-.19891-.079-.38968-.2197-.53033-.1406-.14065-.3314-.21967-.5303-.21967z"/>
    <path clip-rule="evenodd"
          d="m2.75 3c-.9665 0-1.75.7835-1.75 1.75v12.5c0 .9665.7835 1.75 1.75 1.75h5.175c2.3419 0 3.325 1.1906 3.325 2.25 0 .0957.0179.1873.0506.2715.1088.28.3809.4785.6994.4785.3624 0 .6648-.2571.7348-.5988.01-.0489.0152-.0994.0152-.1512 0-1.0594.9831-2.25 3.325-2.25h5.175c.9665 0 1.75-.7835 1.75-1.75v-7c0-.41423-.3358-.75002-.75-.75002s-.75.33579-.75.75002v7c0 .138-.1119.25-.25.25h-5.175c-1.3288 0-2.4804.3451-3.325.9428v-10.6928c0-.92136.1988-1.67509.6086-2.20938.3929-.51218 1.0553-.92128 2.2048-1.01885.4128-.03503.7189-.39801.6839-.81074s-.398-.71892-.8107-.68389c-1.481.12571-2.5687.68864-3.2682 1.60053-.0594.07754-.1155.15685-.1684.23776-.0966-.14798-.2041-.29053-.3234-.42666-.8184-.93413-2.07666-1.43877-3.7766-1.43877zm8.5 4.75c0-.98931-.2287-1.78291-.7016-2.32277-.4566-.52121-1.24834-.92723-2.6484-.92723h-5.15c-.13807 0-.25.11193-.25.25v12.5c0 .1381.11193.25.25.25h5.175c1.32879 0 2.4804.3451 3.325.9428z"
          fill-rule="evenodd"/>
  </g>
</svg>