<svg width="32" height="33" viewBox="0 0 32 33" fill="none" xmlns="http://www.w3.org/2000/svg">
<g id="Icon">
<path id="Union" d="M16.4706 3.61765C16.1765 3.46078 15.8235 3.46078 15.5294 3.61765L0.529412 11.6176C0.203548 11.7914 0 12.1307 0 12.5C0 12.8693 0.203548 13.2086 0.529412 13.3824L6.375 16.5L0.529412 19.6176C0.203548 19.7914 0 20.1307 0 20.5C0 20.8693 0.203548 21.2086 0.529412 21.3824L15.5294 29.3824C15.8235 29.5392 16.1765 29.5392 16.4706 29.3824L31.4706 21.3824C31.7965 21.2086 32 20.8693 32 20.5C32 20.1307 31.7965 19.7914 31.4706 19.6176L25.625 16.5L31.4706 13.3824C31.7965 13.2086 32 12.8693 32 12.5C32 12.1307 31.7965 11.7914 31.4706 11.6176L16.4706 3.61765ZM23.5 17.6333L28.875 20.5L16 27.3667L3.125 20.5L8.5 17.6333L15.5294 21.3824C15.8235 21.5392 16.1765 21.5392 16.4706 21.3824L23.5 17.6333ZM16 19.3667L3.125 12.5L16 5.63333L28.875 12.5L16 19.3667Z" fill="currentColor"/>
</g>
</svg>
