<svg
        fill="none"
        height="24"
        viewBox="0 0 24 24"
        width="24"
        xmlns="http://www.w3.org/2000/svg">
  <path d="M 10,14 6,12 M 8,8 H 7.99 M 12,6 H 11.99 M 16,8 H 15.99 M 18,12 H 17.99 M 10,15 c 0,1.1046 0.8954,2 2,2 1.1046,0 2,-0.8954 2,-2 0,-1.1046 -0.8954,-2 -2,-2 -1.1046,0 -2,0.8954 -2,2 z M 3,12 c 0,4.9706 4.0294,9 9,9 4.97056,0 9,-4.0294 9,-9 C 21,7.02944 16.97056,3 12,3 7.0294,3 3,7.02944 3,12 Z"
        stroke="currentColor"
          stroke-linecap="round"
          stroke-linejoin="round"
          stroke-width="2"
  />
</svg>
