<svg width="17" height="22" viewBox="0 0 17 22" fill="none" xmlns="http://www.w3.org/2000/svg">
    <path
        d="M13.3828 2.75781L10.375 9.78906H14.75C15.2578 9.78906 15.7266 10.1016 15.9219 10.5703C16.0781 11.0781 15.9609 11.625 15.5703 11.9766L5.57031 20.7266C5.10156 21.0781 4.47656 21.1172 4.00781 20.7656C3.53906 20.4531 3.34375 19.8281 3.57812 19.2812L6.58594 12.25H2.25C1.70312 12.25 1.23438 11.9375 1.07812 11.4688C0.882812 10.9609 1 10.4141 1.39062 10.0625L11.3906 1.3125C11.8594 0.960938 12.4844 0.921875 12.9531 1.27344C13.4219 1.58594 13.6172 2.21094 13.3828 2.75781Z"
        fill="#D7C940" />
</svg>