<svg width="15" height="16" viewBox="0 0 15 16" fill="none" xmlns="http://www.w3.org/2000/svg">
    <path
        d="M10.5 7.625C10.5 8.04688 10.1484 8.44531 9.58594 8.75C8.76562 9.21875 7.45312 9.5 6 9.5C4.59375 9.5 3.35156 9.24219 2.50781 8.82031C2.46094 8.79688 2.4375 8.77344 2.39062 8.75C1.82812 8.44531 1.5 8.04688 1.5 7.625C1.5 6.59375 3.51562 5.75 6 5.75C8.48438 5.75 10.5 6.59375 10.5 7.625ZM6 10.25C7.3125 10.25 8.53125 10.0391 9.46875 9.66406C9.84375 9.5 10.1953 9.28906 10.5 9.05469V9.875C10.5 10.2969 10.1484 10.6953 9.58594 11C9.53906 11.0234 9.51562 11.0469 9.46875 11.0703C8.625 11.4922 7.38281 11.75 6 11.75C4.52344 11.75 3.21094 11.4688 2.39062 11C1.82812 10.6953 1.5 10.2969 1.5 9.875V9.05469C1.78125 9.28906 2.13281 9.5 2.50781 9.66406C3.44531 10.0391 4.66406 10.25 6 10.25ZM9.46875 11.9141C9.84375 11.75 10.1953 11.5391 10.5 11.3047V12.125C10.5 13.1797 8.48438 14 6 14C3.51562 14 1.5 13.1797 1.5 12.125V11.3047C1.78125 11.5391 2.13281 11.75 2.50781 11.9141C3.44531 12.2891 4.66406 12.5 6 12.5C7.3125 12.5 8.53125 12.2891 9.46875 11.9141Z"
        fill="#323636" />
    <path opacity="0.4"
        d="M13.5 3.875C13.5 4.29688 13.1484 4.69531 12.5859 5C11.9062 5.39844 10.8984 5.65625 9.72656 5.72656C9.63281 5.70312 9.53906 5.65625 9.46875 5.60938C8.53125 5.23438 7.3125 5 6 5C5.78906 5 5.60156 5.02344 5.41406 5.02344C5.41406 5.02344 5.39062 5.02344 5.39062 5C4.82812 4.69531 4.5 4.29688 4.5 3.875C4.5 2.84375 6.51562 2 9 2C11.4844 2 13.5 2.84375 13.5 3.875ZM11.25 10.0156V8.53906C11.6953 8.42188 12.0938 8.30469 12.4688 8.16406C12.8438 8 13.1953 7.78906 13.5 7.55469V8.375C13.5 9.07812 12.5859 9.6875 11.25 10.0156ZM11.25 7.76562V7.625C11.25 7.13281 10.9922 6.71094 10.6641 6.38281C11.3438 6.28906 11.9531 6.125 12.4688 5.91406C12.8438 5.75 13.1953 5.53906 13.5 5.30469V6.125C13.5 6.54688 13.1484 6.94531 12.5859 7.25C12.5391 7.27344 12.5156 7.29688 12.4688 7.32031C12.1172 7.50781 11.6953 7.64844 11.2266 7.76562H11.25Z"
        fill="#323636" />
</svg>