<svg width="20" height="20" viewBox="0 0 20 20" fill="none" xmlns="http://www.w3.org/2000/svg">
    <path
        d="M14.5 18C12.875 18 11.4062 17.1562 10.5938 15.75C9.78125 14.375 9.78125 12.6562 10.5938 11.25C11.4062 9.875 12.875 9 14.5 9C16.0938 9 17.5625 9.875 18.375 11.25C19.1875 12.6562 19.1875 14.375 18.375 15.75C17.5625 17.1562 16.0938 18 14.5 18ZM15 11.5C15 11.25 14.75 11 14.5 11C14.2188 11 14 11.25 14 11.5V13.5C14 13.7812 14.2188 14 14.5 14H16C16.25 14 16.5 13.7812 16.5 13.5C16.5 13.25 16.25 13 16 13H15V11.5Z"
        fill="#323636" />
    <path
        d="M2 2H3H11H12C12.5312 2 13 2.46875 13 3C13 3.5625 12.5312 4 12 4V4.34375C12 5.6875 11.4688 6.96875 10.5312 7.90625L8.40625 10L9.53125 11.125C9.1875 11.8438 9 12.625 9 13.4375L7 11.4375L4.875 13.5625C4.3125 14.125 4 14.875 4 15.6562V16H9.59375C10 16.8125 10.5938 17.5 11.3125 18H11H3H2C1.4375 18 1 17.5625 1 17C1 16.4688 1.4375 16 2 16V15.6562C2 14.3438 2.5 13.0625 3.4375 12.125L5.5625 10L3.4375 7.90625C2.5 6.96875 2 5.6875 2 4.34375V4C1.4375 4 1 3.5625 1 3C1 2.46875 1.4375 2 2 2ZM4 4.34375C4 5.15625 4.3125 5.90625 4.875 6.46875L7 8.59375L9.09375 6.46875C9.65625 5.90625 10 5.15625 10 4.34375V4H4V4.34375Z"
        fill="#323636" />
</svg>