<svg width="25" height="26" viewBox="0 0 25 26" fill="none" xmlns="http://www.w3.org/2000/svg">
    <path
        d="M12.5 25.5C10.7422 25.5 9.375 24.1328 9.375 22.375V20.5H15.625V22.375C15.625 24.1328 14.2188 25.5 12.5 25.5Z"
        fill="#323636" />
    <path opacity="0.4"
        d="M17.5391 17.1406C16.7578 18.1953 15.9766 19.2891 15.625 20.5H9.375C8.98438 19.2891 8.20312 18.1953 7.42188 17.1406C7.22656 16.8672 7.03125 16.5938 6.83594 16.3203C6.05469 15.1875 5.625 13.8594 5.625 12.375C5.625 8.58594 8.67188 5.5 12.5 5.5C16.2891 5.5 19.375 8.58594 19.375 12.375C19.375 13.8594 18.9062 15.1875 18.125 16.3203C17.9297 16.5938 17.7344 16.8672 17.5391 17.1406ZM9.375 12.375C9.375 10.6562 10.7422 9.25 12.5 9.25C12.8125 9.25 13.125 8.97656 13.125 8.625C13.125 8.3125 12.8125 8 12.5 8C10.0781 8 8.125 9.99219 8.125 12.375C8.125 12.7266 8.39844 13 8.75 13C9.0625 13 9.375 12.7266 9.375 12.375Z"
        fill="#323636" />
</svg>