<svg width="25" height="26" viewBox="0 0 25 26" fill="none" xmlns="http://www.w3.org/2000/svg">
    <path
        d="M17.1094 8.66406C17.2266 8.66406 17.3438 8.625 17.5 8.625C20.2344 8.625 22.5 10.8906 22.5 13.625C22.5 16.3984 20.2344 18.625 17.5 18.625C16.9141 18.625 16.3672 18.5469 15.8594 18.3906C15.2734 19.6406 13.9844 20.5 12.5 20.5C10.9766 20.5 9.6875 19.6406 9.10156 18.3906C8.59375 18.5469 8.04688 18.625 7.5 18.625C4.72656 18.625 2.5 16.3984 2.5 13.625C2.5 10.8906 4.72656 8.625 7.5 8.625C7.61719 8.625 7.73438 8.66406 7.85156 8.66406C8.59375 6.82812 10.3906 5.5 12.5 5.5C14.5703 5.5 16.3672 6.82812 17.1094 8.66406Z"
        fill="#323636" />
    <path opacity="0.4"
        d="M8.125 24.25C7.42188 24.25 6.83594 23.8984 6.48438 23.3125C6.13281 22.7656 6.13281 22.0234 6.48438 21.4375C6.83594 20.8906 7.42188 20.5 8.125 20.5C8.78906 20.5 9.375 20.8906 9.72656 21.4375C10.0781 22.0234 10.0781 22.7656 9.72656 23.3125C9.375 23.8984 8.78906 24.25 8.125 24.25ZM3.75 25.5C3.04688 25.5 2.5 24.9531 2.5 24.25C2.5 23.5859 3.04688 23 3.75 23C4.41406 23 5 23.5859 5 24.25C5 24.9531 4.41406 25.5 3.75 25.5Z"
        fill="#323636" />
</svg>