<svg width="40" height="40" viewBox="0 0 40 40" fill="none" xmlns="http://www.w3.org/2000/svg">
    <path
        d="M19.9375 4C20.8125 4 21.6875 4.625 21.875 5.5L26.5 22.4375L27.625 20.25C28.3125 18.875 29.6875 18 31.1875 18H38C39.0625 18 40 18.9375 40 20C40 21.125 39.0625 22 38 22H31.1875L27.75 28.9375C27.375 29.6875 26.625 30.125 25.75 30C24.9375 29.9375 24.25 29.375 24.0625 28.5625L20.1875 14.5L15.9375 34.4375C15.75 35.375 14.9375 36 14.0625 36C13.125 36.0625 12.3125 35.4375 12.0625 34.5625L8.4375 22H2C0.875 22 0 21.125 0 20C0 18.9375 0.875 18 2 18H8.4375C10.25 18 11.8125 19.1875 12.3125 20.9375L13.6875 25.75L18 5.625C18.1875 4.6875 19 4.0625 19.9375 4Z"
        fill="#36B2D1" />
</svg>